<svg width="290" height="100" viewBox="0 0 290 100" fill="none" xmlns="http://www.w3.org/2000/svg">
<path d="M12.5 56.25L9.37502 50H31.25L28.75 43.75H8.33335L5.20835 37.5H37.7084L35.2084 31.25H4.62502L1.04169 25H16.6667C16.6667 22.7899 17.5447 20.6703 19.1075 19.1074C20.6703 17.5446 22.7899 16.6667 25 16.6667H75V33.3333H87.5L100 50V70.8333H91.6667C91.6667 74.1485 90.3497 77.328 88.0055 79.6722C85.6613 82.0164 82.4819 83.3333 79.1667 83.3333C75.8515 83.3333 72.6721 82.0164 70.3278 79.6722C67.9836 77.328 66.6667 74.1485 66.6667 70.8333H50C50 74.1485 48.6831 77.328 46.3389 79.6722C43.9947 82.0164 40.8152 83.3333 37.5 83.3333C34.1848 83.3333 31.0054 82.0164 28.6612 79.6722C26.317 77.328 25 74.1485 25 70.8333H16.6667V56.25H12.5ZM79.1667 77.0833C80.8243 77.0833 82.414 76.4249 83.5861 75.2528C84.7582 74.0806 85.4167 72.4909 85.4167 70.8333C85.4167 69.1757 84.7582 67.586 83.5861 66.4139C82.414 65.2418 80.8243 64.5833 79.1667 64.5833C77.5091 64.5833 75.9194 65.2418 74.7473 66.4139C73.5752 67.586 72.9167 69.1757 72.9167 70.8333C72.9167 72.4909 73.5752 74.0806 74.7473 75.2528C75.9194 76.4249 77.5091 77.0833 79.1667 77.0833ZM85.4167 39.5833H75V50H93.5833L85.4167 39.5833ZM37.5 77.0833C39.1576 77.0833 40.7473 76.4249 41.9194 75.2528C43.0915 74.0806 43.75 72.4909 43.75 70.8333C43.75 69.1757 43.0915 67.586 41.9194 66.4139C40.7473 65.2418 39.1576 64.5833 37.5 64.5833C35.8424 64.5833 34.2527 65.2418 33.0806 66.4139C31.9085 67.586 31.25 69.1757 31.25 70.8333C31.25 72.4909 31.9085 74.0806 33.0806 75.2528C34.2527 76.4249 35.8424 77.0833 37.5 77.0833Z" fill="#16A34A"/>
<path d="M113.761 48.5V25.2273H123.375C125.117 25.2273 126.621 25.5417 127.886 26.1705C129.159 26.7917 130.14 27.6856 130.83 28.8523C131.519 30.0114 131.864 31.3864 131.864 32.9773C131.864 34.5909 131.511 35.9621 130.807 37.0909C130.102 38.2121 129.102 39.0682 127.807 39.6591C126.511 40.2424 124.977 40.5341 123.205 40.5341H117.125V36.1023H122.159C123.008 36.1023 123.716 35.9924 124.284 35.7727C124.86 35.5455 125.295 35.2045 125.591 34.75C125.886 34.2879 126.034 33.697 126.034 32.9773C126.034 32.2576 125.886 31.6629 125.591 31.1932C125.295 30.7159 124.86 30.3598 124.284 30.125C123.708 29.8826 123 29.7614 122.159 29.7614H119.386V48.5H113.761ZM126.864 37.8636L132.659 48.5H126.523L120.841 37.8636H126.864ZM156.915 36.8636C156.915 39.4242 156.422 41.5947 155.438 43.375C154.453 45.1553 153.119 46.5076 151.438 47.4318C149.763 48.3561 147.884 48.8182 145.801 48.8182C143.71 48.8182 141.828 48.3523 140.153 47.4205C138.479 46.4886 137.15 45.1364 136.165 43.3636C135.188 41.5833 134.699 39.4167 134.699 36.8636C134.699 34.303 135.188 32.1326 136.165 30.3523C137.15 28.572 138.479 27.2197 140.153 26.2955C141.828 25.3712 143.71 24.9091 145.801 24.9091C147.884 24.9091 149.763 25.3712 151.438 26.2955C153.119 27.2197 154.453 28.572 155.438 30.3523C156.422 32.1326 156.915 34.303 156.915 36.8636ZM151.165 36.8636C151.165 35.3485 150.949 34.0682 150.517 33.0227C150.093 31.9773 149.479 31.1856 148.676 30.6477C147.881 30.1098 146.922 29.8409 145.801 29.8409C144.688 29.8409 143.729 30.1098 142.926 30.6477C142.123 31.1856 141.506 31.9773 141.074 33.0227C140.65 34.0682 140.438 35.3485 140.438 36.8636C140.438 38.3788 140.65 39.6591 141.074 40.7045C141.506 41.75 142.123 42.5417 142.926 43.0795C143.729 43.6174 144.688 43.8864 145.801 43.8864C146.922 43.8864 147.881 43.6174 148.676 43.0795C149.479 42.5417 150.093 41.75 150.517 40.7045C150.949 39.6591 151.165 38.3788 151.165 36.8636ZM163.858 48.5H157.812L165.665 25.2273H173.153L181.006 48.5H174.96L169.494 31.0909H169.312L163.858 48.5ZM163.051 39.3409H175.688V43.6136H163.051V39.3409ZM192.114 48.5H183.511V25.2273H192.102C194.473 25.2273 196.515 25.6932 198.227 26.625C199.947 27.5492 201.273 28.8826 202.205 30.625C203.136 32.3598 203.602 34.4356 203.602 36.8523C203.602 39.2765 203.136 41.3598 202.205 43.1023C201.28 44.8447 199.958 46.1818 198.239 47.1136C196.519 48.0379 194.477 48.5 192.114 48.5ZM189.136 43.7045H191.898C193.201 43.7045 194.303 43.4848 195.205 43.0455C196.114 42.5985 196.799 41.875 197.261 40.875C197.731 39.8674 197.966 38.5265 197.966 36.8523C197.966 35.178 197.731 33.8447 197.261 32.8523C196.792 31.8523 196.098 31.1326 195.182 30.6932C194.273 30.2462 193.152 30.0227 191.818 30.0227H189.136V43.7045ZM219.341 48.5L212.568 25.2273H218.784L222.295 40.4773H222.489L226.5 25.2273H231.568L235.58 40.5114H235.773L239.295 25.2273H245.5L238.739 48.5H233.318L229.125 34.3864H228.943L224.75 48.5H219.341ZM250.327 48.5H244.281L252.134 25.2273H259.622L267.474 48.5H261.429L255.963 31.0909H255.781L250.327 48.5ZM249.52 39.3409H262.156V43.6136H249.52V39.3409ZM266.446 25.2273H272.73L277.651 34.9659H277.855L282.776 25.2273H289.06L280.548 40.7273V48.5H274.957V40.7273L266.446 25.2273Z" fill="white"/>
<path d="M121.946 82.5H112.946L117.293 56.3182H126.216C128.815 56.3182 130.972 56.8551 132.685 57.929C134.398 59.0028 135.599 60.5369 136.29 62.5312C136.989 64.517 137.108 66.8864 136.648 69.6392C136.205 72.3324 135.331 74.6378 134.027 76.5554C132.723 78.473 131.048 79.9432 129.003 80.9659C126.957 81.9886 124.605 82.5 121.946 82.5ZM118.366 78.3963H122.189C124.004 78.3963 125.585 78.0511 126.932 77.3608C128.287 76.6619 129.391 75.6264 130.243 74.2543C131.104 72.8736 131.7 71.1605 132.033 69.1151C132.365 67.1548 132.344 65.5355 131.969 64.2571C131.594 62.9702 130.865 62.0114 129.783 61.3807C128.709 60.7415 127.286 60.4219 125.513 60.4219H121.345L118.366 78.3963ZM139.032 82.5L143.379 56.3182H160.407L159.742 60.294H147.457L146.281 67.402H157.684L157.019 71.3778H145.616L144.44 78.5241H156.827L156.163 82.5H139.032ZM160.899 82.5L165.246 56.3182H169.989L166.307 78.5241H177.838L177.173 82.5H160.899ZM190.379 56.3182L186.033 82.5H181.29L185.636 56.3182H190.379ZM199.018 56.3182L202.419 76.9261H202.687L212.902 56.3182H218.118L204.541 82.5H198.686L193.815 56.3182H199.018ZM217.219 82.5L221.566 56.3182H238.594L237.93 60.294H225.644L224.468 67.402H235.871L235.207 71.3778H223.803L222.627 78.5241H235.015L234.35 82.5H217.219ZM239.087 82.5L243.433 56.3182H253.251C255.263 56.3182 256.895 56.6676 258.148 57.3665C259.401 58.0653 260.274 59.0455 260.768 60.3068C261.263 61.5597 261.369 63.0213 261.088 64.6918C260.815 66.3622 260.219 67.8153 259.298 69.0511C258.386 70.2784 257.18 71.2287 255.68 71.902C254.189 72.5753 252.438 72.9119 250.426 72.9119H243.433L244.098 68.9744H250.464C251.641 68.9744 252.629 68.8125 253.43 68.4886C254.232 68.1562 254.862 67.6747 255.322 67.044C255.791 66.4048 256.102 65.6207 256.256 64.6918C256.401 63.7628 256.345 62.9702 256.089 62.3139C255.842 61.6491 255.369 61.1463 254.67 60.8054C253.98 60.456 253.047 60.2812 251.871 60.2812H247.524L243.83 82.5H239.087ZM254.581 70.6364L259.094 82.5H253.801L249.403 70.6364H254.581ZM264.179 56.3182H269.535L274.022 67.9006H274.304L282.6 56.3182H287.957L275.71 72.733L274.086 82.5H269.356L270.98 72.733L264.179 56.3182Z" fill="white"/>
<path d="M112 89.6591H286.039V92.1136H112V89.6591Z" fill="white"/>
</svg>
